PathFileType	4	(X/Y/Z)	C:\Users\T490\OneDrive\Desktop\110_Internship_Tasks\Sprint GSG Position Analysis\results\sports2d_output\sprint_video_Sports2D\sprint_video_Sports2D_px_person00.trc
DataRate	CameraRate	NumFrames	NumMarkers	Units	OrigDataRate	OrigDataStartFrame	OrigNumFrames
25.0	25.0	11	22	m	25.0	349	559
Frame#	Time	Hip			RHip			RKnee			RAnkle			RBigToe			RSmallToe			RHeel			LHip			LKnee			LAnkle			LBigToe			LSmallToe			LHeel			Neck			Head			Nose			RShoulder			RElbow			RWrist			LShoulder			LElbow			LWrist			
		X1	Y1	Z1	X2	Y2	Z2	X3	Y3	Z3	X4	Y4	Z4	X5	Y5	Z5	X6	Y6	Z6	X7	Y7	Z7	X8	Y8	Z8	X9	Y9	Z9	X10	Y10	Z10	X11	Y11	Z11	X12	Y12	Z12	X13	Y13	Z13	X14	Y14	Z14	X15	Y15	Z15	X16	Y16	Z16	X17	Y17	Z17	X18	Y18	Z18	X19	Y19	Z19	X20	Y20	Z20	X21	Y21	Z21	X22	Y22	Z22
349	13.985017921146953	1067.8170782112243	576.5920889758654	0.0	1054.4515489433759	577.9092357810514	0.0	977.2569296495437	626.4201203966063	0.0	1088.2919888408162	640.6491200215357	0.0	1118.5186925263909	658.9260425117744	0.0	1123.7782520171359	656.2583140556093	0.0	1118.8513716873422	617.5392323511915	0.0	1078.4642993918155	579.2472225302274	0.0	1047.463999631847	690.4907163562298	0.0	1151.5269484401342	646.8588407910769	0.0	1167.4243407175165	685.6528691430827	0.0	1170.8527994157253	678.645500328864	0.0	1161.3656019214986	633.6002270153549	0.0	945.7929711693879	517.2659201282509	0.0	878.8788117043341	530.9087431518719	0.0	916.9138736042604	546.4265404963854	0.0	962.2201218978153	507.7698993216784	0.0	965.493823742305	592.6061557934648	0.0	953.5554283236579	657.4801749689262	0.0	958.2934899244204	520.0295579513008	0.0	959.7258370192916	593.4626418044761	0.0	950.6329556292088	664.7594949031943	0.0
350	14.025089605734767	1067.2437616162583	576.5462190391057	0.0	1052.979627946675	578.0253826925824	0.0	977.87379479424	626.4757167742519	0.0	1088.2083508513224	639.6492279159257	0.0	1118.33326235603	659.4323608106441	0.0	1123.0586421449675	657.0273177974727	0.0	1118.6680321025274	618.1829896650388	0.0	1078.2522375827527	578.9280331850133	0.0	1047.3652811802062	690.675176514271	0.0	1151.054068453036	646.7944678533697	0.0	1167.368776348544	686.0122978174035	0.0	1171.001354132241	679.1261667807877	0.0	1161.4601114323818	633.5587360898141	0.0	945.0993441900587	517.4346467306882	0.0	878.8317659175935	533.5812809825936	0.0	916.844973337976	547.1879958081217	0.0	960.0105821577438	507.59832644903327	0.0	965.4690337776817	592.9361681323697	0.0	953.7104737097079	658.3010259492539	0.0	958.4017970750662	519.8367776167222	0.0	959.9244163469448	593.2062632853834	0.0	950.7812852218128	665.3908490260607	0.0
351	14.06516129032258	1066.8400443943726	576.5236059200943	0.0	1052.5440328377872	577.9398225227402	0.0	978.6125771019259	626.4299808132025	0.0	1087.4529846110677	639.3327973431956	0.0	1117.8521159562206	658.6107937300891	0.0	1122.5587948774094	656.4314441611182	0.0	1118.3219102658968	618.9091010066879	0.0	1078.2664924889864	578.8604296219685	0.0	1047.3113737763704	690.7173065496629	0.0	1151.0769228600052	646.7507408151268	0.0	1167.0471963885927	685.9322058098646	0.0	1171.1212192813857	679.5259141742665	0.0	1161.53003054158	633.3911083223228	0.0	944.6495661930894	517.8872707462094	0.0	878.7190993172559	534.7719686605649	0.0	916.8310584677691	549.1258789026017	0.0	958.5457774006895	507.2411986165329	0.0	965.3268276006075	593.199525547101	0.0	953.7896739467456	658.7599887298522	0.0	958.3063636623185	520.2001481886346	0.0	959.9819097686195	593.7896062925992	0.0	950.9503660797665	666.1097077713869	0.0
352	14.105232974910395	1066.993189398397	576.4709066260641	0.0	1052.4696346154083	577.8002301717132	0.0	978.6463410422266	626.2741967019083	0.0	1086.4798768967933	639.6353043819455	0.0	1117.578801289276	657.2635784494432	0.0	1124.3054027675048	655.1435181618331	0.0	1118.271564469209	619.0347415558479	0.0	1078.52536740286	578.919980823589	0.0	1047.368644188273	690.6882797027426	0.0	1151.6314243187778	646.8566777348638	0.0	1166.972260912301	685.3765005812666	0.0	1171.128001806641	679.2876610873136	0.0	1161.5206024343356	633.3746613219641	0.0	944.3297723827103	518.4035795961012	0.0	878.6368441545178	535.0631610334699	0.0	916.9781834164614	550.990305411631	0.0	958.0013147860486	507.15484106091253	0.0	965.5573286302669	593.2646284813725	0.0	953.8579552289575	658.811576527129	0.0	958.3245261661511	520.4043379263443	0.0	959.827035156677	594.471904040608	0.0	951.2648413825441	666.4661020160104	0.0
353	14.145304659498208	1067.4072401773124	576.438628916417	0.0	1052.0944075188172	578.152203086243	0.0	977.8206971197653	626.2786797395396	0.0	1086.0846173091602	639.342986215959	0.0	1117.7599505272433	656.4002908701539	0.0	1126.292543996251	654.3356075693873	0.0	1118.7439117379147	618.7550136627173	0.0	1078.7911027822195	578.9613221699433	0.0	1047.4940645199467	690.9455741708653	0.0	1152.1000635420583	647.0877355423453	0.0	1167.131844291898	684.8004909372423	0.0	1171.0734478711904	678.8039247548206	0.0	1161.4848996471005	633.7471665766211	0.0	944.0947425288834	518.670002961437	0.0	878.576001706648	536.30846895165	0.0	917.0158189911083	551.6288886571868	0.0	957.7161017530989	507.2995055627799	0.0	965.6123850608634	593.1840277166133	0.0	954.0164991449265	658.8961001647589	0.0	958.9096713409263	520.1197536784084	0.0	960.0525938599496	594.4347826423898	0.0	951.5539065547825	666.3701963130308	0.0
354	14.185376344086022	1067.5874745611443	576.4983710060114	0.0	1051.8147195313263	578.7295632690557	0.0	977.1199007564121	626.2966314856984	0.0	1086.6337635300047	638.4867863544297	0.0	1118.0497552306147	655.9520503328914	0.0	1126.6098542047966	653.5526141168352	0.0	1119.112997242777	618.4941098657716	0.0	1078.9191468397362	578.9459458245492	0.0	1047.6572173387685	691.3724544779809	0.0	1152.038436434312	647.228537591486	0.0	1166.8954280295836	684.7272196401101	0.0	1171.0647545023278	678.753540549518	0.0	1161.4906136151485	634.0739061903266	0.0	944.0576599622318	518.6186973205432	0.0	878.5622048057878	537.7256679003476	0.0	916.9824508484221	551.5853223473931	0.0	957.4485053223354	507.2692708236264	0.0	965.0398136961039	593.3052746925255	0.0	954.2962807671931	659.2217811615103	0.0	959.5795085119837	519.7709313979518	0.0	960.3532800759476	593.9420533899261	0.0	951.5945023573854	665.9683124401321	0.0
355	14.225448028673835	1067.4405347676382	576.5743573281006	0.0	1051.7091045928398	578.9496606411926	0.0	977.2123408565185	625.9609996260488	0.0	1087.2164680563733	638.1612985360007	0.0	1118.160414034124	656.4114736387985	0.0	1126.599020366005	652.7377023059815	0.0	1119.053274449773	618.2842491833754	0.0	1078.923922417062	578.8467981233206	0.0	1047.7556196753683	691.4367280009767	0.0	1151.4465377762222	647.1034449935214	0.0	1166.519760455245	685.1261117274148	0.0	1171.143391927456	679.1524541683325	0.0	1161.5553535762508	634.0268667163032	0.0	944.0585390460344	518.4433785116903	0.0	878.5691629195737	537.0319543766062	0.0	917.3548597329799	551.4283683793606	0.0	957.3911421468794	507.1496401103726	0.0	964.4293913882059	593.9720345077453	0.0	954.3973198402377	659.5219132694608	0.0	959.6299920946357	519.6885392307497	0.0	960.2229081164244	593.6366719410191	0.0	951.3549776220391	665.5706495042984	0.0
356	14.265519713261648	1067.169202403426	576.5536349222948	0.0	1051.3114672338672	578.8876419549352	0.0	977.6993247889932	625.4705599925376	0.0	1087.0898362528258	638.6031346937312	0.0	1118.3771104728503	657.9160378738624	0.0	1127.4579548334927	653.1015599919556	0.0	1119.086740606788	618.0417858718287	0.0	1078.8705685998575	578.755248389037	0.0	1047.8137361451118	691.0778561598605	0.0	1150.8786873489348	646.8525031917947	0.0	1166.5294381744752	685.4931550507687	0.0	1171.4023244144148	679.5215838688441	0.0	1161.717700172172	633.8626427563333	0.0	943.8614035630497	518.3590875712323	0.0	878.2055248258008	535.2144709018011	0.0	917.6169974301723	550.866150006733	0.0	957.5749811336598	507.38585280055486	0.0	964.194622506787	594.7166720542323	0.0	954.0134781187394	659.761588274862	0.0	959.2727420542918	519.841922178111	0.0	960.084820415309	593.7871780896465	0.0	951.0895248715669	665.379382991711	0.0
357	14.305591397849463	1066.8564965725052	576.477581749097	0.0	1050.7993822128306	578.8435745617007	0.0	977.9574697948294	625.34201636786	0.0	1086.8340275693477	638.9541271593972	0.0	1119.1425777808088	659.0302130861617	0.0	1128.8584169547992	654.5554109197935	0.0	1119.4441969732966	617.634189259488	0.0	1078.8154026974223	578.7912552838916	0.0	1048.0182526021633	690.8809402539504	0.0	1150.890945272725	646.7857086392065	0.0	1166.6820820397165	685.5588285015308	0.0	1171.9212867279314	679.6066074439483	0.0	1161.977850967128	633.798958822761	0.0	943.5261463339957	518.1944637177139	0.0	877.3035581345559	534.8613491095759	0.0	916.8908224562934	550.0166913678611	0.0	957.6943432516437	507.8207098338511	0.0	964.1667976622244	594.7454300747013	0.0	953.5814390548618	660.2795607716183	0.0	959.0852084117578	519.924765355496	0.0	960.0699275192387	593.5494670913538	0.0	951.0150825543202	665.2201391642399	0.0
358	14.345663082437277	1066.5985055742517	576.5000213584732	0.0	1050.6720931391576	578.9105174446241	0.0	977.7617573059908	625.6365789970866	0.0	1086.7906044364142	638.9921314381799	0.0	1120.1645232612839	658.8577471546646	0.0	1129.7699591251085	655.1691448960012	0.0	1119.831174579041	617.1821759194667	0.0	1078.7624889391998	578.9139231923632	0.0	1048.322182438913	691.1033016980302	0.0	1151.201915619069	646.811434986955	0.0	1166.6829919580512	685.4934014540636	0.0	1172.2277803603283	679.5629789841287	0.0	1162.0723012934745	633.7490411674715	0.0	943.3004012418603	517.941618278469	0.0	876.608870346099	535.0936430487764	0.0	915.8841162735914	549.5632075310789	0.0	957.6705346653501	507.6474507088036	0.0	964.1371449688921	594.2927502000925	0.0	953.6722972579294	660.7466490295383	0.0	959.1530620644592	519.7126466481086	0.0	959.7976100120342	592.4810598456002	0.0	951.0195331353505	665.2217801637885	0.0
359	14.38573476702509	1066.5633398489308	576.6827440864126	0.0	1050.8847847193072	579.0370518101505	0.0	977.3133035507549	625.783245634942	0.0	1086.6969104540944	639.3564518110768	0.0	1120.7201138290673	658.4126878369335	0.0	1129.4246302260424	654.5162665355654	0.0	1120.1415037113827	617.2145618343858	0.0	1078.691127990954	579.0488450948344	0.0	1048.5244673239597	691.2180702849864	0.0	1151.364489982425	646.5545974836275	0.0	1166.4365926937985	685.4030122557806	0.0	1171.738276894875	679.3828867676567	0.0	1161.6859597339512	633.633077005973	0.0	943.3509570226316	517.9470496501515	0.0	876.6414604228025	533.5791784082151	0.0	915.5289971098824	549.5570411304462	0.0	957.8489200246958	506.8088226520472	0.0	964.2989097427411	593.9748184063541	0.0	954.1495802626746	660.1932958593493	0.0	959.2725644416298	519.36252256537	0.0	959.4256606500755	592.4881779876125	0.0	951.0565625954117	665.6301452788363	0.0
